<?xml version="1.0" encoding="utf-8"?>
<!-- Generator: Adobe Illustrator 17.1.0, SVG Export Plug-In . SVG Version: 6.00 Build 0)  -->
<!DOCTYPE svg PUBLIC "-//W3C//DTD SVG 1.1//EN" "http://www.w3.org/Graphics/SVG/1.1/DTD/svg11.dtd">
<svg version="1.1" id="Laag_2" xmlns="http://www.w3.org/2000/svg" xmlns:xlink="http://www.w3.org/1999/xlink" x="0px" y="0px"
	 viewBox="0 0 841.9 595.3" enable-background="new 0 0 841.9 595.3" xml:space="preserve">
<circle stroke="#000000" stroke-width="0.75" stroke-miterlimit="10" cx="420.9" cy="276.5" r="10"/>
<circle stroke="#000000" stroke-width="0.75" stroke-miterlimit="10" cx="487.5" cy="276.5" r="10"/>
<circle stroke="#000000" stroke-width="0.75" stroke-miterlimit="10" cx="450" cy="260" r="10"/>
<circle stroke="#000000" stroke-width="0.75" stroke-miterlimit="10" cx="421" cy="242.4" r="10"/>
<circle stroke="#000000" stroke-width="0.75" stroke-miterlimit="10" cx="420.9" cy="209.9" r="10"/>
<circle stroke="#000000" stroke-width="0.75" stroke-miterlimit="10" cx="421" cy="176.5" r="10"/>
<circle stroke="#000000" stroke-width="0.75" stroke-miterlimit="10" cx="421" cy="143.4" r="10"/>
<circle stroke="#000000" stroke-width="0.75" stroke-miterlimit="10" cx="421" cy="110.4" r="10"/>
<circle stroke="#000000" stroke-width="0.75" stroke-miterlimit="10" cx="454.2" cy="219.1" r="10"/>
<circle stroke="#000000" stroke-width="0.75" stroke-miterlimit="10" cx="478.5" cy="243.1" r="10"/>
<circle stroke="#000000" stroke-width="0.75" stroke-miterlimit="10" cx="516" cy="245.6" r="10"/>
<circle stroke="#000000" stroke-width="0.75" stroke-miterlimit="10" cx="549.7" cy="242.1" r="10"/>
<circle stroke="#000000" stroke-width="0.75" stroke-miterlimit="10" cx="583.8" cy="244.3" r="10"/>
<circle stroke="#000000" stroke-width="0.75" stroke-miterlimit="10" cx="616.8" cy="242.1" r="10"/>
<circle stroke="#000000" stroke-width="0.75" stroke-miterlimit="10" cx="608" cy="207.9" r="10"/>
<circle stroke="#000000" stroke-width="0.75" stroke-miterlimit="10" cx="574.7" cy="213.3" r="10"/>
<circle stroke="#000000" stroke-width="0.75" stroke-miterlimit="10" cx="536" cy="209.9" r="10"/>
<circle stroke="#000000" stroke-width="0.75" stroke-miterlimit="10" cx="558.8" cy="184.3" r="10"/>
<circle stroke="#000000" stroke-width="0.75" stroke-miterlimit="10" cx="592.9" cy="177.2" r="10"/>
<circle stroke="#000000" stroke-width="0.75" stroke-miterlimit="10" cx="572.9" cy="148.7" r="10"/>
<circle stroke="#000000" stroke-width="0.75" stroke-miterlimit="10" cx="538.1" cy="158.7" r="10"/>
<circle stroke="#000000" stroke-width="0.75" stroke-miterlimit="10" cx="514.9" cy="182.6" r="10"/>
<circle stroke="#000000" stroke-width="0.75" stroke-miterlimit="10" cx="487.5" cy="161.2" r="10"/>
<circle stroke="#000000" stroke-width="0.75" stroke-miterlimit="10" cx="455.7" cy="148.7" r="10"/>
<circle stroke="#000000" stroke-width="0.75" stroke-miterlimit="10" cx="453.3" cy="113.6" r="10"/>
<circle stroke="#000000" stroke-width="0.75" stroke-miterlimit="10" cx="484.5" cy="123.6" r="10"/>
<circle stroke="#000000" stroke-width="0.75" stroke-miterlimit="10" cx="514" cy="138.7" r="10"/>
<circle stroke="#000000" stroke-width="0.75" stroke-miterlimit="10" cx="548.8" cy="124.6" r="10"/>
<circle stroke="#000000" stroke-width="0.75" stroke-miterlimit="10" cx="521" cy="104.6" r="10"/>
<circle stroke="#000000" stroke-width="0.75" stroke-miterlimit="10" cx="489" cy="89.6" r="10"/>
<circle stroke="#000000" stroke-width="0.75" stroke-miterlimit="10" cx="455.7" cy="81.2" r="10"/>
<circle stroke="#000000" stroke-width="0.75" stroke-miterlimit="10" cx="420.9" cy="77.9" r="10"/>
<circle stroke="#000000" stroke-width="0.75" stroke-miterlimit="10" cx="501.8" cy="217.9" r="10"/>
<circle stroke="#000000" stroke-width="0.75" stroke-miterlimit="10" cx="479.7" cy="195.4" r="10"/>
<circle stroke="#000000" stroke-width="0.75" stroke-miterlimit="10" cx="452.2" cy="181.6" r="10"/>
<circle stroke="#000000" stroke-width="0.75" stroke-miterlimit="10" cx="521" cy="276.5" r="10"/>
<circle stroke="#000000" stroke-width="0.75" stroke-miterlimit="10" cx="554" cy="276.5" r="10"/>
<circle stroke="#000000" stroke-width="0.75" stroke-miterlimit="10" cx="587" cy="276.5" r="10"/>
<circle stroke="#000000" stroke-width="0.75" stroke-miterlimit="10" cx="619.5" cy="276.5" r="10"/>
<circle stroke="#000000" stroke-width="0.75" stroke-miterlimit="10" cx="421.2" cy="276.5" r="10"/>
<circle stroke="#000000" stroke-width="0.75" stroke-miterlimit="10" cx="354.6" cy="276.5" r="10"/>
<circle stroke="#000000" stroke-width="0.75" stroke-miterlimit="10" cx="392.1" cy="260" r="10"/>
<circle stroke="#000000" stroke-width="0.75" stroke-miterlimit="10" cx="421.1" cy="242.4" r="10"/>
<circle stroke="#000000" stroke-width="0.75" stroke-miterlimit="10" cx="421.2" cy="209.9" r="10"/>
<circle stroke="#000000" stroke-width="0.75" stroke-miterlimit="10" cx="421.1" cy="176.5" r="10"/>
<circle stroke="#000000" stroke-width="0.75" stroke-miterlimit="10" cx="421.1" cy="143.4" r="10"/>
<circle stroke="#000000" stroke-width="0.75" stroke-miterlimit="10" cx="421.1" cy="110.4" r="10"/>
<circle stroke="#000000" stroke-width="0.75" stroke-miterlimit="10" cx="388" cy="219.1" r="10"/>
<circle stroke="#000000" stroke-width="0.75" stroke-miterlimit="10" cx="363.6" cy="243.1" r="10"/>
<circle stroke="#000000" stroke-width="0.75" stroke-miterlimit="10" cx="326.1" cy="245.6" r="10"/>
<circle stroke="#000000" stroke-width="0.75" stroke-miterlimit="10" cx="292.5" cy="242.1" r="10"/>
<circle stroke="#000000" stroke-width="0.75" stroke-miterlimit="10" cx="258.3" cy="244.3" r="10"/>
<circle stroke="#000000" stroke-width="0.75" stroke-miterlimit="10" cx="225.3" cy="242.1" r="10"/>
<circle stroke="#000000" stroke-width="0.75" stroke-miterlimit="10" cx="234.1" cy="207.9" r="10"/>
<circle stroke="#000000" stroke-width="0.75" stroke-miterlimit="10" cx="267.5" cy="213.3" r="10"/>
<circle stroke="#000000" stroke-width="0.75" stroke-miterlimit="10" cx="306.1" cy="209.9" r="10"/>
<circle stroke="#000000" stroke-width="0.75" stroke-miterlimit="10" cx="283.3" cy="184.3" r="10"/>
<circle stroke="#000000" stroke-width="0.75" stroke-miterlimit="10" cx="249.2" cy="177.2" r="10"/>
<circle stroke="#000000" stroke-width="0.75" stroke-miterlimit="10" cx="269.2" cy="148.7" r="10"/>
<circle stroke="#000000" stroke-width="0.75" stroke-miterlimit="10" cx="304" cy="158.7" r="10"/>
<circle stroke="#000000" stroke-width="0.75" stroke-miterlimit="10" cx="327.2" cy="182.6" r="10"/>
<circle stroke="#000000" stroke-width="0.75" stroke-miterlimit="10" cx="354.6" cy="161.2" r="10"/>
<circle stroke="#000000" stroke-width="0.75" stroke-miterlimit="10" cx="386.5" cy="148.7" r="10"/>
<circle stroke="#000000" stroke-width="0.75" stroke-miterlimit="10" cx="388.8" cy="113.6" r="10"/>
<circle stroke="#000000" stroke-width="0.75" stroke-miterlimit="10" cx="357.6" cy="123.6" r="10"/>
<circle stroke="#000000" stroke-width="0.75" stroke-miterlimit="10" cx="328.1" cy="138.7" r="10"/>
<circle stroke="#000000" stroke-width="0.75" stroke-miterlimit="10" cx="293.3" cy="124.6" r="10"/>
<circle stroke="#000000" stroke-width="0.75" stroke-miterlimit="10" cx="321.2" cy="104.6" r="10"/>
<circle stroke="#000000" stroke-width="0.75" stroke-miterlimit="10" cx="353.2" cy="89.6" r="10"/>
<circle stroke="#000000" stroke-width="0.75" stroke-miterlimit="10" cx="386.5" cy="81.2" r="10"/>
<circle stroke="#000000" stroke-width="0.75" stroke-miterlimit="10" cx="421.2" cy="77.9" r="10"/>
<circle stroke="#000000" stroke-width="0.75" stroke-miterlimit="10" cx="340.3" cy="217.9" r="10"/>
<circle stroke="#000000" stroke-width="0.75" stroke-miterlimit="10" cx="362.5" cy="195.4" r="10"/>
<circle stroke="#000000" stroke-width="0.75" stroke-miterlimit="10" cx="390" cy="181.6" r="10"/>
<circle stroke="#000000" stroke-width="0.75" stroke-miterlimit="10" cx="321.2" cy="276.5" r="10"/>
<circle stroke="#000000" stroke-width="0.75" stroke-miterlimit="10" cx="288.1" cy="276.5" r="10"/>
<circle stroke="#000000" stroke-width="0.75" stroke-miterlimit="10" cx="255.1" cy="276.5" r="10"/>
<circle stroke="#000000" stroke-width="0.75" stroke-miterlimit="10" cx="222.6" cy="276.5" r="10"/>
<circle stroke="#000000" stroke-width="0.75" stroke-miterlimit="10" cx="420.9" cy="276.9" r="10"/>
<circle stroke="#000000" stroke-width="0.75" stroke-miterlimit="10" cx="487.5" cy="276.9" r="10"/>
<circle stroke="#000000" stroke-width="0.75" stroke-miterlimit="10" cx="450" cy="293.4" r="10"/>
<circle stroke="#000000" stroke-width="0.75" stroke-miterlimit="10" cx="421" cy="310.9" r="10"/>
<circle stroke="#000000" stroke-width="0.75" stroke-miterlimit="10" cx="420.9" cy="343.4" r="10"/>
<circle stroke="#000000" stroke-width="0.75" stroke-miterlimit="10" cx="421" cy="376.9" r="10"/>
<circle stroke="#000000" stroke-width="0.75" stroke-miterlimit="10" cx="421" cy="409.9" r="10"/>
<circle stroke="#000000" stroke-width="0.75" stroke-miterlimit="10" cx="421" cy="442.9" r="10"/>
<circle stroke="#000000" stroke-width="0.75" stroke-miterlimit="10" cx="454.2" cy="334.3" r="10"/>
<circle stroke="#000000" stroke-width="0.75" stroke-miterlimit="10" cx="478.5" cy="310.3" r="10"/>
<circle stroke="#000000" stroke-width="0.75" stroke-miterlimit="10" cx="516" cy="307.8" r="10"/>
<circle stroke="#000000" stroke-width="0.75" stroke-miterlimit="10" cx="549.7" cy="311.3" r="10"/>
<circle stroke="#000000" stroke-width="0.75" stroke-miterlimit="10" cx="583.8" cy="309.1" r="10"/>
<circle stroke="#000000" stroke-width="0.75" stroke-miterlimit="10" cx="616.8" cy="311.3" r="10"/>
<circle stroke="#000000" stroke-width="0.75" stroke-miterlimit="10" cx="608" cy="345.4" r="10"/>
<circle stroke="#000000" stroke-width="0.75" stroke-miterlimit="10" cx="574.7" cy="340.1" r="10"/>
<circle stroke="#000000" stroke-width="0.75" stroke-miterlimit="10" cx="536" cy="343.4" r="10"/>
<circle stroke="#000000" stroke-width="0.75" stroke-miterlimit="10" cx="558.8" cy="369.1" r="10"/>
<circle stroke="#000000" stroke-width="0.75" stroke-miterlimit="10" cx="592.9" cy="376.2" r="10"/>
<circle stroke="#000000" stroke-width="0.75" stroke-miterlimit="10" cx="572.9" cy="404.7" r="10"/>
<circle stroke="#000000" stroke-width="0.75" stroke-miterlimit="10" cx="538.1" cy="394.7" r="10"/>
<circle stroke="#000000" stroke-width="0.75" stroke-miterlimit="10" cx="514.9" cy="370.8" r="10"/>
<circle stroke="#000000" stroke-width="0.75" stroke-miterlimit="10" cx="487.5" cy="392.2" r="10"/>
<circle stroke="#000000" stroke-width="0.75" stroke-miterlimit="10" cx="455.7" cy="404.7" r="10"/>
<circle stroke="#000000" stroke-width="0.75" stroke-miterlimit="10" cx="453.3" cy="439.8" r="10"/>
<circle stroke="#000000" stroke-width="0.75" stroke-miterlimit="10" cx="484.5" cy="429.8" r="10"/>
<circle stroke="#000000" stroke-width="0.75" stroke-miterlimit="10" cx="514" cy="414.7" r="10"/>
<circle stroke="#000000" stroke-width="0.75" stroke-miterlimit="10" cx="548.8" cy="428.8" r="10"/>
<circle stroke="#000000" stroke-width="0.75" stroke-miterlimit="10" cx="521" cy="448.8" r="10"/>
<circle stroke="#000000" stroke-width="0.75" stroke-miterlimit="10" cx="489" cy="463.8" r="10"/>
<circle stroke="#000000" stroke-width="0.75" stroke-miterlimit="10" cx="455.7" cy="472.2" r="10"/>
<circle stroke="#000000" stroke-width="0.75" stroke-miterlimit="10" cx="420.9" cy="475.4" r="10"/>
<circle stroke="#000000" stroke-width="0.75" stroke-miterlimit="10" cx="501.8" cy="335.4" r="10"/>
<circle stroke="#000000" stroke-width="0.75" stroke-miterlimit="10" cx="479.7" cy="357.9" r="10"/>
<circle stroke="#000000" stroke-width="0.75" stroke-miterlimit="10" cx="452.2" cy="371.8" r="10"/>
<circle stroke="#000000" stroke-width="0.75" stroke-miterlimit="10" cx="521" cy="276.9" r="10"/>
<circle stroke="#000000" stroke-width="0.75" stroke-miterlimit="10" cx="554" cy="276.9" r="10"/>
<circle stroke="#000000" stroke-width="0.75" stroke-miterlimit="10" cx="587" cy="276.9" r="10"/>
<circle stroke="#000000" stroke-width="0.75" stroke-miterlimit="10" cx="619.5" cy="276.9" r="10"/>
<circle stroke="#000000" stroke-width="0.75" stroke-miterlimit="10" cx="421.2" cy="276.9" r="10"/>
<circle stroke="#000000" stroke-width="0.75" stroke-miterlimit="10" cx="354.6" cy="276.9" r="10"/>
<circle stroke="#000000" stroke-width="0.75" stroke-miterlimit="10" cx="392.1" cy="293.4" r="10"/>
<circle stroke="#000000" stroke-width="0.75" stroke-miterlimit="10" cx="421.1" cy="310.9" r="10"/>
<circle stroke="#000000" stroke-width="0.75" stroke-miterlimit="10" cx="421.1" cy="376.9" r="10"/>
<circle stroke="#000000" stroke-width="0.75" stroke-miterlimit="10" cx="421.1" cy="409.9" r="10"/>
<circle stroke="#000000" stroke-width="0.75" stroke-miterlimit="10" cx="421.1" cy="442.9" r="10"/>
<circle stroke="#000000" stroke-width="0.75" stroke-miterlimit="10" cx="388" cy="334.3" r="10"/>
<circle stroke="#000000" stroke-width="0.75" stroke-miterlimit="10" cx="363.6" cy="310.3" r="10"/>
<circle stroke="#000000" stroke-width="0.75" stroke-miterlimit="10" cx="326.1" cy="307.8" r="10"/>
<circle stroke="#000000" stroke-width="0.75" stroke-miterlimit="10" cx="292.5" cy="311.3" r="10"/>
<circle stroke="#000000" stroke-width="0.75" stroke-miterlimit="10" cx="258.3" cy="309.1" r="10"/>
<circle stroke="#000000" stroke-width="0.75" stroke-miterlimit="10" cx="225.3" cy="311.3" r="10"/>
<circle stroke="#000000" stroke-width="0.75" stroke-miterlimit="10" cx="234.1" cy="345.4" r="10"/>
<circle stroke="#000000" stroke-width="0.75" stroke-miterlimit="10" cx="267.5" cy="340.1" r="10"/>
<circle stroke="#000000" stroke-width="0.75" stroke-miterlimit="10" cx="306.1" cy="343.4" r="10"/>
<circle stroke="#000000" stroke-width="0.75" stroke-miterlimit="10" cx="283.3" cy="369.1" r="10"/>
<circle stroke="#000000" stroke-width="0.75" stroke-miterlimit="10" cx="249.2" cy="376.2" r="10"/>
<circle stroke="#000000" stroke-width="0.75" stroke-miterlimit="10" cx="269.2" cy="404.7" r="10"/>
<circle stroke="#000000" stroke-width="0.75" stroke-miterlimit="10" cx="304" cy="394.7" r="10"/>
<circle stroke="#000000" stroke-width="0.75" stroke-miterlimit="10" cx="327.2" cy="370.8" r="10"/>
<circle stroke="#000000" stroke-width="0.75" stroke-miterlimit="10" cx="354.6" cy="392.2" r="10"/>
<circle stroke="#000000" stroke-width="0.75" stroke-miterlimit="10" cx="386.5" cy="404.7" r="10"/>
<circle stroke="#000000" stroke-width="0.75" stroke-miterlimit="10" cx="388.8" cy="439.8" r="10"/>
<circle stroke="#000000" stroke-width="0.75" stroke-miterlimit="10" cx="357.6" cy="429.8" r="10"/>
<circle stroke="#000000" stroke-width="0.75" stroke-miterlimit="10" cx="328.1" cy="414.7" r="10"/>
<circle stroke="#000000" stroke-width="0.75" stroke-miterlimit="10" cx="293.3" cy="428.8" r="10"/>
<circle stroke="#000000" stroke-width="0.75" stroke-miterlimit="10" cx="321.2" cy="448.8" r="10"/>
<circle stroke="#000000" stroke-width="0.75" stroke-miterlimit="10" cx="353.2" cy="463.8" r="10"/>
<circle stroke="#000000" stroke-width="0.75" stroke-miterlimit="10" cx="386.5" cy="472.2" r="10"/>
<circle stroke="#000000" stroke-width="0.75" stroke-miterlimit="10" cx="421.2" cy="475.4" r="10"/>
<circle stroke="#000000" stroke-width="0.75" stroke-miterlimit="10" cx="340.3" cy="335.4" r="10"/>
<circle stroke="#000000" stroke-width="0.75" stroke-miterlimit="10" cx="362.5" cy="357.9" r="10"/>
<circle stroke="#000000" stroke-width="0.75" stroke-miterlimit="10" cx="390" cy="371.8" r="10"/>
<circle stroke="#000000" stroke-width="0.75" stroke-miterlimit="10" cx="321.2" cy="276.9" r="10"/>
<circle stroke="#000000" stroke-width="0.75" stroke-miterlimit="10" cx="288.1" cy="276.9" r="10"/>
<circle stroke="#000000" stroke-width="0.75" stroke-miterlimit="10" cx="255.1" cy="276.9" r="10"/>
<circle stroke="#000000" stroke-width="0.75" stroke-miterlimit="10" cx="222.6" cy="276.9" r="10"/>
</svg>
